<mxfile host="app.diagrams.net" modified="2023-04-26T10:31:36.808Z" agent="Mozilla/5.0 (Windows NT 10.0; Win64; x64) AppleWebKit/537.36 (KHTML, like Gecko) Chrome/112.0.0.0 Safari/537.36" etag="xIDHNUpHZ9ksWUEhcEvz" version="21.1.8" type="device">
  <diagram name="Page-1" id="ys-pwW75H1bJXRTO17jr">
    <mxGraphModel dx="2284" dy="749" grid="1" gridSize="10" guides="1" tooltips="1" connect="1" arrows="1" fold="1" page="1" pageScale="1" pageWidth="850" pageHeight="1100" math="0" shadow="0">
      <root>
        <mxCell id="0" />
        <mxCell id="1" parent="0" />
        <mxCell id="Q5lYegiJYsNgaXFqELi2-1" value="" style="rounded=1;whiteSpace=wrap;html=1;shadow=0;sketch=0;strokeColor=none;strokeWidth=4;fillColor=#E3E6B8;gradientColor=none;" vertex="1" parent="1">
          <mxGeometry x="-10" y="480" width="910" height="280" as="geometry" />
        </mxCell>
        <mxCell id="Q5lYegiJYsNgaXFqELi2-8" style="edgeStyle=orthogonalEdgeStyle;rounded=0;orthogonalLoop=1;jettySize=auto;html=1;exitX=1;exitY=0.5;exitDx=0;exitDy=0;strokeWidth=2;" edge="1" parent="1" source="Q5lYegiJYsNgaXFqELi2-2" target="Q5lYegiJYsNgaXFqELi2-3">
          <mxGeometry relative="1" as="geometry" />
        </mxCell>
        <mxCell id="Q5lYegiJYsNgaXFqELi2-2" value="&lt;b&gt;&lt;font style=&quot;font-size: 16px;&quot;&gt;application-based instance graph&lt;/font&gt;&lt;/b&gt;" style="rounded=1;whiteSpace=wrap;html=1;fillColor=#FFD966;strokeColor=#000000;strokeWidth=2;" vertex="1" parent="1">
          <mxGeometry x="3.5" y="570" width="173" height="60" as="geometry" />
        </mxCell>
        <mxCell id="Q5lYegiJYsNgaXFqELi2-9" style="edgeStyle=orthogonalEdgeStyle;rounded=0;orthogonalLoop=1;jettySize=auto;html=1;exitX=1;exitY=0.5;exitDx=0;exitDy=0;entryX=0;entryY=0.5;entryDx=0;entryDy=0;strokeWidth=2;" edge="1" parent="1" source="Q5lYegiJYsNgaXFqELi2-3" target="Q5lYegiJYsNgaXFqELi2-6">
          <mxGeometry relative="1" as="geometry" />
        </mxCell>
        <mxCell id="Q5lYegiJYsNgaXFqELi2-3" value="&lt;b&gt;&lt;font style=&quot;font-size: 16px;&quot;&gt;abstract specification graph&lt;/font&gt;&lt;/b&gt;" style="rounded=1;whiteSpace=wrap;html=1;fillColor=#FFD966;strokeColor=#000000;strokeWidth=2;" vertex="1" parent="1">
          <mxGeometry x="226.5" y="570" width="173" height="60" as="geometry" />
        </mxCell>
        <mxCell id="Q5lYegiJYsNgaXFqELi2-12" style="edgeStyle=orthogonalEdgeStyle;rounded=0;orthogonalLoop=1;jettySize=auto;html=1;exitX=1;exitY=0.5;exitDx=0;exitDy=0;strokeWidth=2;" edge="1" parent="1" source="Q5lYegiJYsNgaXFqELi2-4" target="Q5lYegiJYsNgaXFqELi2-7">
          <mxGeometry relative="1" as="geometry" />
        </mxCell>
        <mxCell id="Q5lYegiJYsNgaXFqELi2-4" value="&lt;b&gt;&lt;font style=&quot;font-size: 16px;&quot;&gt;platform-specific constraint&lt;/font&gt;&lt;/b&gt;" style="rounded=1;whiteSpace=wrap;html=1;fillColor=#FFD966;strokeColor=#000000;strokeWidth=2;" vertex="1" parent="1">
          <mxGeometry x="450" y="660" width="173" height="60" as="geometry" />
        </mxCell>
        <mxCell id="Q5lYegiJYsNgaXFqELi2-11" style="edgeStyle=orthogonalEdgeStyle;rounded=0;orthogonalLoop=1;jettySize=auto;html=1;exitX=1;exitY=0.5;exitDx=0;exitDy=0;strokeWidth=2;" edge="1" parent="1" source="Q5lYegiJYsNgaXFqELi2-5" target="Q5lYegiJYsNgaXFqELi2-4">
          <mxGeometry relative="1" as="geometry" />
        </mxCell>
        <mxCell id="Q5lYegiJYsNgaXFqELi2-5" value="&lt;b&gt;&lt;font style=&quot;font-size: 16px;&quot;&gt;abstract specification constraint&lt;/font&gt;&lt;/b&gt;" style="rounded=1;whiteSpace=wrap;html=1;fillColor=#FFD966;strokeColor=#000000;strokeWidth=2;" vertex="1" parent="1">
          <mxGeometry x="226.5" y="660" width="173" height="60" as="geometry" />
        </mxCell>
        <mxCell id="Q5lYegiJYsNgaXFqELi2-10" style="edgeStyle=orthogonalEdgeStyle;rounded=0;orthogonalLoop=1;jettySize=auto;html=1;exitX=1;exitY=0.5;exitDx=0;exitDy=0;strokeWidth=2;" edge="1" parent="1" source="Q5lYegiJYsNgaXFqELi2-6" target="Q5lYegiJYsNgaXFqELi2-7">
          <mxGeometry relative="1" as="geometry" />
        </mxCell>
        <mxCell id="Q5lYegiJYsNgaXFqELi2-6" value="&lt;span style=&quot;font-size: 16px;&quot;&gt;&lt;b&gt;platform-specific graph&lt;/b&gt;&lt;/span&gt;" style="rounded=1;whiteSpace=wrap;html=1;fillColor=#FFD966;strokeColor=#000000;strokeWidth=2;" vertex="1" parent="1">
          <mxGeometry x="449.5" y="570" width="173" height="60" as="geometry" />
        </mxCell>
        <mxCell id="Q5lYegiJYsNgaXFqELi2-7" value="&lt;b&gt;&lt;font style=&quot;font-size: 16px;&quot;&gt;Validation Service&lt;br&gt;&lt;br&gt;validate_constraint()&lt;br&gt;&lt;/font&gt;&lt;/b&gt;" style="rounded=1;whiteSpace=wrap;html=1;fillColor=#FFD966;strokeColor=#000000;strokeWidth=2;" vertex="1" parent="1">
          <mxGeometry x="685" y="550" width="180" height="190" as="geometry" />
        </mxCell>
        <mxCell id="Q5lYegiJYsNgaXFqELi2-14" value="" style="endArrow=none;dashed=1;html=1;dashPattern=1 3;strokeWidth=2;rounded=0;" edge="1" parent="1">
          <mxGeometry width="50" height="50" relative="1" as="geometry">
            <mxPoint x="197" y="760" as="sourcePoint" />
            <mxPoint x="197" y="480" as="targetPoint" />
          </mxGeometry>
        </mxCell>
        <mxCell id="Q5lYegiJYsNgaXFqELi2-15" value="" style="endArrow=none;dashed=1;html=1;dashPattern=1 3;strokeWidth=2;rounded=0;" edge="1" parent="1">
          <mxGeometry width="50" height="50" relative="1" as="geometry">
            <mxPoint x="420" y="760" as="sourcePoint" />
            <mxPoint x="420" y="480" as="targetPoint" />
          </mxGeometry>
        </mxCell>
        <mxCell id="Q5lYegiJYsNgaXFqELi2-16" value="" style="endArrow=none;dashed=1;html=1;dashPattern=1 3;strokeWidth=2;rounded=0;" edge="1" parent="1">
          <mxGeometry width="50" height="50" relative="1" as="geometry">
            <mxPoint x="654" y="760" as="sourcePoint" />
            <mxPoint x="654" y="480" as="targetPoint" />
          </mxGeometry>
        </mxCell>
        <mxCell id="Q5lYegiJYsNgaXFqELi2-17" value="&lt;font style=&quot;font-size: 18px;&quot;&gt;&lt;b&gt;Client software&lt;/b&gt;&lt;/font&gt;" style="text;html=1;strokeColor=none;fillColor=none;align=center;verticalAlign=middle;whiteSpace=wrap;rounded=0;" vertex="1" parent="1">
          <mxGeometry x="16.5" y="500" width="160" height="30" as="geometry" />
        </mxCell>
        <mxCell id="Q5lYegiJYsNgaXFqELi2-18" value="&lt;font style=&quot;font-size: 18px;&quot;&gt;&lt;b&gt;Specification&lt;/b&gt;&lt;/font&gt;" style="text;html=1;strokeColor=none;fillColor=none;align=center;verticalAlign=middle;whiteSpace=wrap;rounded=0;" vertex="1" parent="1">
          <mxGeometry x="233" y="500" width="160" height="30" as="geometry" />
        </mxCell>
        <mxCell id="Q5lYegiJYsNgaXFqELi2-19" value="&lt;font style=&quot;font-size: 18px;&quot;&gt;&lt;b&gt;Implementation&lt;/b&gt;&lt;/font&gt;" style="text;html=1;strokeColor=none;fillColor=none;align=center;verticalAlign=middle;whiteSpace=wrap;rounded=0;" vertex="1" parent="1">
          <mxGeometry x="456.5" y="500" width="160" height="30" as="geometry" />
        </mxCell>
      </root>
    </mxGraphModel>
  </diagram>
</mxfile>
